<!--?xml version="1.0" encoding="iso-8859-1"?-->
<!-- Generator: Adobe Illustrator 19.0.0, SVG Export Plug-In . SVG Version: 6.00 Build 0)  -->
<svg version="1.1" id="Capa_1" xmlns="http://www.w3.org/2000/svg" xmlns:xlink="http://www.w3.org/1999/xlink" x="0px" y="0px" viewBox="0 0 512 512" style="" xml:space="preserve" class="">
<path style="fill:#00C063;" d="M445.759,0.757c-87.255,0-158.241,70.987-158.241,158.24v16.281h16.281
	c87.255,0,158.241-70.987,158.241-158.24V0.757H445.759z" class="yHZZDUMn_0"></path>
<path style="fill:#009A43;" d="M287.518,175.28h16.281c87.255,0,158.241-70.987,158.241-158.24V0.757L287.518,175.28z" class="yHZZDUMn_1"></path>
<path style="fill:#00C063;" d="M159.276,52.457h-16.28v16.281c0,87.255,70.987,158.241,158.24,158.241h16.281v-16.281
	C317.518,123.445,246.531,52.457,159.276,52.457z" class="yHZZDUMn_2"></path>
<path style="fill:#009A43;" d="M159.276,52.457h-16.28L317.518,226.98v-16.281C317.518,123.445,246.531,52.457,159.276,52.457z" class="yHZZDUMn_3"></path>
<path style="fill:#AE4B00;" d="M435.262,336.843c-25.724-28.687-68.777-76.7-122.751-81.185
	c-82.85-6.884-137.142,40.91-139.414,42.947l10.017,11.166l0,0h0.001l10.016,11.165c0.093-0.083,2.061-1.816,5.718-4.478
	l57.143,24.287l53.943,24.438l9.153,44.21l102.761-42.71c1.593,1.697,3.084,3.233,4.469,4.576l20.878-21.542
	C444.228,346.843,440.074,342.208,435.262,336.843z" class="yHZZDUMn_4"></path>
<path style="fill:#803400;" d="M435.262,336.843c-25.724-28.687-68.777-76.7-122.751-81.185c-3.381-0.281-6.71-0.462-9.994-0.568
	v106.732l7.416,3.36l9.153,44.21l102.761-42.71c1.593,1.697,3.084,3.233,4.469,4.576l20.878-21.542
	C444.228,346.843,440.074,342.208,435.262,336.843z" class="yHZZDUMn_5"></path>
<path style="fill:#F9D5A5;" d="M508.117,369.113c-5.162-12.42-14.851-22.086-27.283-27.218s-26.117-5.116-38.539,0.046
	L331.89,387.826c0.104-6.695-1.128-13.415-3.714-19.844c-5.25-13.05-15.33-23.114-28.386-28.339l-101.775-40.739
	c-22.535-9.027-47.302-8.865-69.74,0.457l-50.517,20.995l5.757,13.852l0.081,5.425l-0.081,0.055l0.857,84.138l-5.619,13.909
	l165.115,66.694c11.279,4.544,23.107,6.815,34.932,6.815c12.162,0,24.318-2.401,35.867-7.201l166.277-69.107
	c12.42-5.162,22.086-14.851,27.218-27.283C513.295,395.22,513.279,381.534,508.117,369.113z" class="yHZZDUMn_6"></path>
<g>
	<path style="fill:#F9BE77;" d="M506.878,366.384c-5.373,11.065-14.476,19.684-25.933,24.446l-166.277,69.107
		c-11.549,4.8-23.705,7.201-35.867,7.201c-11.825,0-23.653-2.271-34.932-6.814l-159.783-64.54l0.285,28.042l-5.619,13.909
		l165.115,66.694c11.279,4.544,23.107,6.815,34.932,6.815c12.162,0,24.318-2.401,35.867-7.201l166.277-69.107
		c12.42-5.162,22.086-14.851,27.218-27.283c5.133-12.433,5.116-26.118-0.046-38.539C507.732,368.186,507.313,367.28,506.878,366.384
		z" class="yHZZDUMn_7"></path>
	<path style="fill:#F9BE77;" d="M83.934,380.806L84.371,379.721L83.906,334.045L83.515,334.208L83.596,339.634L
		83.515,339.688Z" class="yHZZDUMn_8"></path>
</g>
<path style="fill:#FF3100;" width="98.517" height="201.283" d="M0 279.99 L98.517 279.99 L98.517 481.273 L0 481.273 Z" class="yHZZDUMn_9"></path>
<path style="fill:#FFFFFF;" width="29.999" height="233.652" d="M69.518 258.851 L99.517 258.851 L99.517 492.503 L69.518 492.503 Z" class="yHZZDUMn_10"></path>
<path style="fill:#C81C00;" width="98.517" height="93.877" d="M0 387.406 L98.517 387.406 L98.517 481.283 L0 481.283 Z" class="yHZZDUMn_11"></path>
<path style="fill:#DBDBDD;" width="29.999" height="105.096" d="M69.518 387.406 L99.517 387.406 L99.517 492.502 L69.518 492.502 Z" class="yHZZDUMn_12"></path>
<path style="fill:#FF9A00;" d="M402.101,77.822L380.417,57.092L287.519,154.502L287.519,174.586L224.62,108.793L
	202.935,129.524L287.519,217.998L287.519,269.963L317.518,269.963L317.518,166.295Z" class="yHZZDUMn_13"></path>
<path style="fill:#D86100;" d="M380.417,57.092L302.518,138.774L302.518,269.963L317.518,269.963L317.518,166.295L
	402.101,77.822Z" class="yHZZDUMn_14"></path>
<g>
</g>
<g>
</g>
<g>
</g>
<g>
</g>
<g>
</g>
<g>
</g>
<g>
</g>
<g>
</g>
<g>
</g>
<g>
</g>
<g>
</g>
<g>
</g>
<g>
</g>
<g>
</g>
<g>
</g>
<style data-made-with="vivus-instant">.yHZZDUMn_0{stroke-dasharray:563 565;stroke-dashoffset:564;animation:yHZZDUMn_draw_0 7200ms ease-in 0ms infinite,yHZZDUMn_fade 7200ms linear 0ms infinite;}.yHZZDUMn_1{stroke-dasharray:528 530;stroke-dashoffset:529;animation:yHZZDUMn_draw_1 7200ms ease-in 0ms infinite,yHZZDUMn_fade 7200ms linear 0ms infinite;}.yHZZDUMn_2{stroke-dasharray:563 565;stroke-dashoffset:564;animation:yHZZDUMn_draw_2 7200ms ease-in 0ms infinite,yHZZDUMn_fade 7200ms linear 0ms infinite;}.yHZZDUMn_3{stroke-dasharray:528 530;stroke-dashoffset:529;animation:yHZZDUMn_draw_3 7200ms ease-in 0ms infinite,yHZZDUMn_fade 7200ms linear 0ms infinite;}.yHZZDUMn_4{stroke-dasharray:670 672;stroke-dashoffset:671;animation:yHZZDUMn_draw_4 7200ms ease-in 0ms infinite,yHZZDUMn_fade 7200ms linear 0ms infinite;}.yHZZDUMn_5{stroke-dasharray:487 489;stroke-dashoffset:488;animation:yHZZDUMn_draw_5 7200ms ease-in 0ms infinite,yHZZDUMn_fade 7200ms linear 0ms infinite;}.yHZZDUMn_6{stroke-dasharray:1126 1128;stroke-dashoffset:1127;animation:yHZZDUMn_draw_6 7200ms ease-in 0ms infinite,yHZZDUMn_fade 7200ms linear 0ms infinite;}.yHZZDUMn_7{stroke-dasharray:1018 1020;stroke-dashoffset:1019;animation:yHZZDUMn_draw_7 7200ms ease-in 0ms infinite,yHZZDUMn_fade 7200ms linear 0ms infinite;}.yHZZDUMn_8{stroke-dasharray:94 96;stroke-dashoffset:95;animation:yHZZDUMn_draw_8 7200ms ease-in 0ms infinite,yHZZDUMn_fade 7200ms linear 0ms infinite;}.yHZZDUMn_9{stroke-dasharray:600 602;stroke-dashoffset:601;animation:yHZZDUMn_draw_9 7200ms ease-in 0ms infinite,yHZZDUMn_fade 7200ms linear 0ms infinite;}.yHZZDUMn_10{stroke-dasharray:528 530;stroke-dashoffset:529;animation:yHZZDUMn_draw_10 7200ms ease-in 0ms infinite,yHZZDUMn_fade 7200ms linear 0ms infinite;}.yHZZDUMn_11{stroke-dasharray:385 387;stroke-dashoffset:386;animation:yHZZDUMn_draw_11 7200ms ease-in 0ms infinite,yHZZDUMn_fade 7200ms linear 0ms infinite;}.yHZZDUMn_12{stroke-dasharray:271 273;stroke-dashoffset:272;animation:yHZZDUMn_draw_12 7200ms ease-in 0ms infinite,yHZZDUMn_fade 7200ms linear 0ms infinite;}.yHZZDUMn_13{stroke-dasharray:737 739;stroke-dashoffset:738;animation:yHZZDUMn_draw_13 7200ms ease-in 0ms infinite,yHZZDUMn_fade 7200ms linear 0ms infinite;}.yHZZDUMn_14{stroke-dasharray:516 518;stroke-dashoffset:517;animation:yHZZDUMn_draw_14 7200ms ease-in 0ms infinite,yHZZDUMn_fade 7200ms linear 0ms infinite;}@keyframes yHZZDUMn_draw{100%{stroke-dashoffset:0;}}@keyframes yHZZDUMn_fade{0%{stroke-opacity:1;}94.44444444444444%{stroke-opacity:1;}100%{stroke-opacity:0;}}@keyframes yHZZDUMn_draw_0{11.11111111111111%{stroke-dashoffset: 564}52.22222222222223%{ stroke-dashoffset: 0;}100%{ stroke-dashoffset: 0;}}@keyframes yHZZDUMn_draw_1{11.150793650793652%{stroke-dashoffset: 529}52.261904761904766%{ stroke-dashoffset: 0;}100%{ stroke-dashoffset: 0;}}@keyframes yHZZDUMn_draw_2{11.19047619047619%{stroke-dashoffset: 564}52.301587301587304%{ stroke-dashoffset: 0;}100%{ stroke-dashoffset: 0;}}@keyframes yHZZDUMn_draw_3{11.230158730158731%{stroke-dashoffset: 529}52.34126984126984%{ stroke-dashoffset: 0;}100%{ stroke-dashoffset: 0;}}@keyframes yHZZDUMn_draw_4{11.26984126984127%{stroke-dashoffset: 671}52.38095238095239%{ stroke-dashoffset: 0;}100%{ stroke-dashoffset: 0;}}@keyframes yHZZDUMn_draw_5{11.30952380952381%{stroke-dashoffset: 488}52.420634920634924%{ stroke-dashoffset: 0;}100%{ stroke-dashoffset: 0;}}@keyframes yHZZDUMn_draw_6{11.34920634920635%{stroke-dashoffset: 1127}52.460317460317455%{ stroke-dashoffset: 0;}100%{ stroke-dashoffset: 0;}}@keyframes yHZZDUMn_draw_7{11.38888888888889%{stroke-dashoffset: 1019}52.5%{ stroke-dashoffset: 0;}100%{ stroke-dashoffset: 0;}}@keyframes yHZZDUMn_draw_8{11.428571428571429%{stroke-dashoffset: 95}52.539682539682545%{ stroke-dashoffset: 0;}100%{ stroke-dashoffset: 0;}}@keyframes yHZZDUMn_draw_9{11.468253968253968%{stroke-dashoffset: 601}52.57936507936508%{ stroke-dashoffset: 0;}100%{ stroke-dashoffset: 0;}}@keyframes yHZZDUMn_draw_10{11.507936507936508%{stroke-dashoffset: 529}52.61904761904762%{ stroke-dashoffset: 0;}100%{ stroke-dashoffset: 0;}}@keyframes yHZZDUMn_draw_11{11.547619047619047%{stroke-dashoffset: 386}52.65873015873016%{ stroke-dashoffset: 0;}100%{ stroke-dashoffset: 0;}}@keyframes yHZZDUMn_draw_12{11.587301587301587%{stroke-dashoffset: 272}52.6984126984127%{ stroke-dashoffset: 0;}100%{ stroke-dashoffset: 0;}}@keyframes yHZZDUMn_draw_13{11.626984126984127%{stroke-dashoffset: 738}52.73809523809524%{ stroke-dashoffset: 0;}100%{ stroke-dashoffset: 0;}}@keyframes yHZZDUMn_draw_14{11.666666666666666%{stroke-dashoffset: 517}52.77777777777778%{ stroke-dashoffset: 0;}100%{ stroke-dashoffset: 0;}}</style></svg>
